<?xml version="1.0" standalone="no"?>
<!DOCTYPE svg PUBLIC "-//W3C//DTD SVG 20010904//EN"
 "http://www.w3.org/TR/2001/REC-SVG-20010904/DTD/svg10.dtd">
<svg version="1.0" xmlns="http://www.w3.org/2000/svg"
 width="2000.000000pt" height="2000.000000pt" viewBox="0 0 2000.000000 2000.000000"
 preserveAspectRatio="xMidYMid meet">
<metadata>
Created by potrace 1.14, written by Peter Selinger 2001-2017
</metadata>
<g transform="translate(0.000000,2000.000000) scale(0.100000,-0.100000)"
fill="#000000" stroke="none">
<path d="M10335 19530 c-7 -11 20 -38 156 -160 46 -41 97 -87 113 -102 26 -25
87 -79 216 -193 25 -22 47 -42 50 -45 10 -10 165 -147 194 -171 16 -13 41 -35
56 -49 34 -31 68 -60 460 -400 318 -275 561 -485 680 -590 36 -31 108 -94 160
-140 87 -76 218 -191 244 -215 6 -5 45 -39 86 -75 68 -59 115 -100 176 -155
12 -11 53 -47 90 -80 104 -92 448 -397 460 -409 6 -6 34 -31 64 -56 29 -25 62
-54 74 -66 11 -12 158 -144 326 -295 167 -151 312 -281 321 -289 51 -48 141
-129 328 -300 51 -47 110 -101 131 -120 31 -29 97 -89 236 -215 12 -11 61 -56
110 -100 212 -191 309 -280 314 -285 3 -3 32 -30 65 -60 108 -98 285 -262 394
-365 147 -139 541 -536 541 -545 0 -12 -30 -17 -116 -19 -128 -3 -220 37 -331
145 -32 31 -78 73 -103 93 -49 39 -312 262 -320 271 -3 3 -48 41 -100 85 -52
44 -97 82 -100 85 -3 3 -50 43 -105 90 -55 47 -102 87 -105 90 -3 3 -32 28
-65 55 -70 59 -337 286 -380 324 -16 14 -91 77 -165 140 -74 63 -137 117 -140
121 -3 3 -32 28 -65 55 -33 28 -65 55 -71 60 -6 6 -32 28 -59 50 -26 22 -53
45 -59 51 -6 5 -87 75 -181 154 -93 80 -175 149 -181 155 -6 5 -32 28 -58 50
-27 22 -58 48 -70 59 -11 10 -43 37 -70 60 -27 22 -54 46 -60 51 -14 12 -132
113 -165 140 -13 11 -29 25 -35 30 -6 6 -119 103 -251 215 -254 216 -358 306
-440 376 -27 24 -68 58 -89 76 -22 18 -155 131 -295 251 -141 121 -278 238
-306 262 -27 23 -102 87 -166 141 -63 55 -139 119 -169 144 -29 25 -69 59 -89
76 -34 30 -316 271 -371 318 -52 43 -165 141 -170 146 -3 3 -32 27 -65 55 -33
27 -65 54 -71 60 -6 5 -35 30 -64 55 -30 25 -70 59 -90 76 -19 17 -48 42 -64
55 -15 13 -38 33 -51 44 -12 11 -44 38 -70 60 -27 22 -53 45 -60 52 -6 6 -40
35 -75 64 -36 29 -72 60 -81 69 -9 8 -27 24 -40 34 -13 11 -53 45 -89 76 -36
31 -76 66 -90 77 -14 12 -83 71 -154 132 -88 75 -138 111 -154 111 -13 0 -45
-17 -71 -38 -25 -21 -86 -69 -136 -107 -209 -160 -440 -339 -445 -344 -4 -5
-67 -56 -210 -168 -8 -6 -46 -37 -85 -68 -96 -76 -89 -71 -195 -155 -52 -41
-97 -77 -100 -80 -3 -3 -45 -37 -95 -75 -49 -38 -95 -74 -102 -80 -6 -5 -47
-38 -90 -72 -153 -122 -559 -445 -593 -473 -19 -15 -96 -76 -170 -134 -74 -59
-148 -118 -165 -131 -97 -78 -183 -147 -595 -474 -250 -200 -475 -379 -499
-399 -24 -20 -51 -41 -60 -46 -9 -5 -18 -12 -21 -16 -3 -3 -77 -63 -165 -132
-183 -144 -255 -207 -255 -222 0 -6 21 -23 48 -37 26 -15 79 -43 117 -64 39
-21 106 -63 150 -93 73 -50 83 -54 125 -50 46 5 97 33 165 93 67 59 82 71 120
99 22 17 49 38 60 48 17 14 243 194 374 297 19 14 71 55 116 91 45 36 97 77
116 92 19 15 152 121 296 235 144 114 342 271 439 348 269 212 685 543 718
570 16 14 43 35 59 47 34 26 396 312 810 643 152 121 287 224 300 229 13 5 35
6 48 3 19 -5 253 -198 394 -326 17 -15 125 -108 240 -206 116 -99 212 -182
215 -185 3 -3 66 -58 140 -121 74 -62 148 -126 165 -141 16 -14 51 -44 76 -65
25 -21 70 -59 100 -84 147 -126 364 -309 530 -449 101 -85 186 -157 189 -160
3 -3 59 -50 125 -105 66 -55 122 -102 125 -105 4 -5 482 -409 545 -461 11 -10
56 -48 100 -86 73 -61 158 -133 205 -173 155 -131 424 -359 574 -488 105 -90
214 -182 241 -206 194 -166 439 -376 485 -416 67 -58 407 -348 480 -410 82
-69 351 -299 385 -329 17 -14 57 -48 90 -76 33 -27 71 -60 85 -71 14 -12 90
-77 170 -145 80 -68 150 -128 156 -134 6 -5 33 -28 60 -50 26 -22 69 -58 94
-80 46 -40 81 -69 235 -200 44 -37 91 -72 105 -77 25 -10 1147 -15 1157 -5 2
3 -18 52 -45 109 -27 56 -69 144 -92 193 -116 246 -241 475 -288 528 -8 9 -16
25 -17 35 -1 9 -5 27 -9 40 -9 28 -217 392 -272 477 -51 78 -56 86 -78 126
-41 74 -143 195 -155 184 -3 -3 -6 -65 -7 -138 -1 -73 -7 -145 -13 -161 l-12
-29 -86 84 c-47 46 -99 98 -116 114 -17 17 -42 55 -56 85 l-26 55 0 2032 c0
1880 -1 2034 -17 2049 -14 14 -41 16 -195 16 -98 0 -514 -1 -924 -1 -627 -1
-748 -3 -765 -15 -21 -16 -20 -2 -24 -488 -2 -143 -5 -190 -16 -198 -10 -9
-41 2 -131 46 -404 195 -738 332 -1148 468 -169 57 -491 152 -548 162 -16 2
-39 10 -51 16 -11 6 -21 10 -21 8 0 -2 -20 1 -45 8 -166 44 -544 127 -720 158
-47 8 -96 17 -110 20 -14 2 -41 7 -60 10 -19 3 -46 7 -60 9 -14 3 -61 9 -105
15 -44 6 -91 13 -105 15 -104 15 -245 29 -410 40 -58 4 -108 9 -112 11 -4 3
-9 0 -13 -6z"/>
<path d="M8837 19464 c-1 -1 -74 -19 -162 -39 -162 -38 -509 -128 -555 -144
-14 -5 -52 -17 -85 -26 -191 -55 -663 -219 -900 -315 -285 -114 -753 -333
-975 -456 -506 -281 -852 -502 -1227 -786 -140 -106 -405 -315 -448 -355 -11
-10 -38 -33 -60 -52 -67 -57 -167 -144 -202 -177 l-34 -31 346 -174 c190 -96
354 -181 363 -189 21 -18 100 -70 107 -70 3 0 37 -20 77 -45 40 -25 83 -45 96
-45 13 0 56 26 100 60 84 67 657 513 731 570 62 48 551 431 571 446 63 52 197
158 315 249 160 124 216 174 235 210 8 15 47 44 89 67 136 74 219 136 691 513
466 371 687 545 876 688 112 84 132 109 83 105 -16 -1 -31 -3 -32 -4z"/>
<path d="M9775 17431 c-11 -5 -29 -18 -39 -30 -21 -24 -23 -55 -11 -213 7 -85
11 -98 28 -104 11 -3 200 -7 421 -9 220 -1 406 -3 411 -5 27 -7 64 2 86 21 23
20 24 25 23 161 0 130 -2 142 -21 158 -18 14 -59 17 -359 18 -187 1 -379 4
-429 7 -49 2 -99 1 -110 -4z"/>
<path d="M8749 17423 c-119 -15 -128 -29 -125 -195 2 -87 6 -123 17 -133 12
-12 94 -15 468 -18 l455 -4 23 25 c23 25 26 39 25 97 -1 17 -1 67 -2 111 -2
130 39 119 -437 119 -225 0 -416 -1 -424 -2z"/>
<path d="M8638 16962 c-16 -19 -13 -579 3 -598 15 -19 919 -16 944 2 18 14 18
3 16 381 -1 166 -4 204 -16 217 -23 22 -928 21 -947 -2z"/>
<path d="M9748 16972 c-10 -2 -20 -13 -23 -25 -2 -12 -3 -143 -2 -291 3 -261
4 -269 24 -286 20 -16 59 -17 469 -15 425 1 447 2 460 20 13 18 15 83 16 504
0 104 34 97 -483 97 -244 0 -452 -1 -461 -4z"/>
<path d="M2555 16929 c-337 -27 -595 -107 -815 -253 -96 -63 -119 -82 -214
-174 -193 -188 -318 -405 -440 -760 -40 -117 -106 -361 -121 -447 -45 -261
-59 -422 -59 -670 0 -150 9 -348 18 -405 3 -14 7 -47 10 -75 4 -27 8 -61 11
-75 2 -14 6 -41 9 -60 9 -58 46 -243 56 -275 64 -205 93 -280 151 -398 87
-175 189 -317 334 -462 225 -225 463 -371 794 -486 104 -36 226 -70 291 -83
14 -2 59 -11 100 -20 41 -9 76 -16 78 -16 12 0 -7 -46 -47 -114 -98 -163 -183
-385 -216 -565 -3 -14 -7 -37 -10 -51 -3 -14 -7 -45 -10 -70 -3 -25 -8 -54
-10 -65 -8 -40 -18 -223 -18 -335 0 -131 12 -292 28 -380 3 -14 10 -54 16 -90
6 -36 15 -78 19 -95 5 -16 11 -41 14 -55 12 -60 59 -214 100 -325 171 -464
398 -836 874 -1432 117 -147 195 -254 188 -260 -2 -2 -34 -12 -72 -23 -38 -10
-130 -44 -204 -74 l-135 -54 -10 29 c-9 27 -29 54 -140 193 -53 67 -195 250
-276 356 -265 347 -464 693 -602 1050 -63 162 -151 448 -172 563 -3 12 -9 45
-15 72 -15 72 -17 84 -25 145 -4 30 -9 64 -11 75 -22 115 -22 576 0 691 2 12
7 45 11 75 3 30 9 68 12 84 3 17 7 37 8 45 4 38 18 110 31 160 8 30 17 79 20
107 6 50 5 53 -21 63 -14 5 -37 10 -50 10 -13 0 -106 45 -207 101 -218 121
-256 144 -372 228 -110 80 -105 83 -140 -94 -2 -11 -13 -65 -25 -120 -11 -55
-23 -118 -26 -140 -4 -22 -8 -47 -10 -55 -2 -8 -7 -35 -10 -60 -3 -25 -10 -70
-15 -100 -9 -54 -13 -86 -25 -205 -3 -33 -8 -71 -10 -85 -3 -14 -7 -65 -10
-115 -4 -49 -8 -101 -10 -115 -21 -138 -21 -991 0 -1200 2 -19 6 -80 10 -135
3 -55 8 -111 10 -125 2 -14 6 -52 10 -85 10 -102 25 -230 31 -260 2 -10 6 -37
9 -60 3 -22 13 -78 22 -125 8 -47 17 -96 19 -110 13 -78 70 -318 104 -435 55
-187 129 -408 151 -448 7 -13 7 -23 -2 -33 -16 -19 -26 -18 -52 9 -12 13 -60
57 -107 97 -291 253 -529 543 -717 875 -55 97 -62 111 -152 315 -32 74 -64
136 -70 138 -6 2 -13 -9 -16 -25 -4 -15 -11 -39 -16 -53 -5 -14 -11 -70 -14
-125 -2 -55 -6 -111 -9 -125 -22 -117 -30 -218 -31 -400 0 -232 13 -387 50
-570 29 -148 43 -203 75 -312 61 -202 171 -461 268 -630 12 -21 30 -53 41 -70
87 -153 222 -355 364 -543 l105 -140 -34 -12 c-58 -20 -93 -22 -109 -6 -8 8
-15 19 -15 24 0 26 -56 59 -101 59 -66 0 -241 129 -419 309 -138 140 -138 140
-273 317 -59 78 -115 148 -124 155 -9 8 -14 10 -11 4 3 -5 9 -39 12 -75 3 -36
8 -99 12 -140 3 -41 8 -78 10 -81 4 -7 29 -121 39 -179 20 -116 120 -390 190
-525 74 -141 198 -342 224 -365 3 -3 26 -32 50 -64 151 -203 438 -481 660
-639 177 -127 399 -252 561 -317 30 -12 66 -26 80 -32 57 -24 200 -70 275 -89
101 -26 84 -23 258 -58 166 -33 233 -61 292 -121 60 -61 38 -82 -99 -95 -59
-5 -85 -8 -178 -20 -38 -5 -83 -13 -178 -30 -14 -2 -54 -9 -90 -15 -36 -5 -76
-12 -90 -15 -44 -8 -164 -27 -195 -31 -16 -2 -55 -8 -85 -14 -30 -5 -68 -12
-85 -14 -16 -3 -43 -7 -60 -10 -16 -3 -50 -8 -75 -11 -25 -3 -56 -8 -70 -10
-43 -6 -131 -17 -164 -20 -17 -2 -51 -6 -76 -9 -25 -3 -70 -8 -100 -11 -152
-12 -189 -16 -240 -21 -113 -11 -157 -15 -230 -24 -41 -6 -100 -13 -130 -16
-102 -11 -97 -16 110 -101 187 -77 719 -261 1005 -347 105 -32 204 -62 220
-67 46 -15 377 -109 400 -114 11 -2 70 -18 130 -35 61 -16 119 -32 130 -34 12
-2 52 -13 90 -24 59 -17 517 -137 565 -147 39 -9 581 -148 623 -160 26 -8 47
-12 47 -9 0 3 8 0 18 -5 9 -5 31 -11 47 -14 37 -7 34 -6 234 -56 91 -23 174
-43 185 -45 12 -2 28 -7 36 -10 8 -3 26 -8 40 -11 100 -21 130 -29 130 -35 0
-8 -53 -87 -115 -172 -125 -170 -202 -427 -198 -654 1 -85 4 -105 23 -194 71
-324 349 -599 672 -667 87 -18 257 -23 343 -10 251 38 471 168 591 348 54 82
73 98 116 105 34 6 39 4 183 -69 28 -14 64 -31 82 -38 53 -22 67 -58 57 -152
-16 -166 -12 -303 11 -440 10 -54 55 -178 95 -257 139 -276 414 -477 760 -554
169 -38 366 -42 565 -11 62 10 231 51 325 80 47 15 92 28 100 30 83 20 489
176 625 241 44 20 82 38 85 38 22 5 330 168 372 197 14 11 28 19 31 19 9 0
162 96 289 182 65 43 126 78 136 78 10 0 40 -11 68 -24 185 -92 450 -207 629
-275 33 -13 69 -27 80 -32 83 -36 549 -177 690 -209 28 -7 57 -13 65 -15 27
-7 254 -54 285 -60 17 -3 44 -7 60 -10 43 -8 135 -24 170 -29 17 -3 57 -8 90
-12 33 -3 69 -8 80 -10 10 -2 51 -6 90 -10 38 -3 84 -7 102 -9 209 -24 666
-24 948 -1 61 6 238 26 265 31 8 2 51 8 95 15 44 7 89 14 100 16 11 3 36 7 55
10 19 3 43 7 52 10 10 3 30 7 45 10 114 19 536 136 620 170 18 8 34 14 35 13
2 0 16 4 31 10 16 6 31 11 34 11 12 0 320 124 340 138 13 8 23 22 23 32 0 41
-194 380 -346 606 -128 190 -316 442 -372 499 -27 28 -60 65 -72 84 -23 33
-23 34 -5 47 21 15 65 19 65 6 0 -5 21 -20 48 -35 26 -14 57 -37 70 -51 12
-14 28 -26 36 -26 8 0 54 -20 102 -44 106 -53 161 -73 256 -91 102 -19 275
-12 368 15 71 20 219 85 230 100 3 4 14 12 25 18 34 18 132 111 174 166 149
195 212 483 156 719 -35 153 -117 319 -212 432 -19 21 -32 46 -31 54 2 11 48
24 163 48 209 42 202 41 223 47 9 3 28 7 42 10 14 2 90 21 170 41 80 20 152
38 160 40 65 17 150 41 235 67 55 17 101 30 102 30 8 -2 348 118 500 176 342
132 767 334 1043 497 63 37 129 75 146 85 195 112 499 328 605 429 17 17 36
31 40 31 5 0 9 7 9 15 0 18 -4 18 -28 6 -15 -9 -107 -34 -171 -47 -14 -3 -28
-7 -33 -10 -4 -3 -16 -7 -27 -9 -10 -2 -111 -28 -222 -58 -189 -51 -422 -108
-494 -122 -16 -3 -66 -12 -110 -20 -44 -8 -89 -17 -100 -19 -56 -10 -140 -22
-225 -31 -36 -4 -72 -9 -81 -10 -22 -4 -221 -17 -301 -20 -44 -1 -65 2 -61 9
10 25 191 142 344 222 347 183 595 352 874 598 99 86 383 370 450 450 28 32
55 64 60 70 135 149 355 459 504 710 315 529 515 1070 586 1581 3 22 8 51 10
65 21 122 28 579 11 745 -5 50 -10 131 -11 181 -1 50 -5 96 -9 102 -13 22 -25
12 -36 -30 -11 -40 -77 -177 -158 -328 -129 -240 -464 -680 -554 -726 -16 -8
-69 -56 -118 -105 -69 -69 -95 -90 -112 -87 -31 4 -35 43 -9 79 12 15 21 35
21 43 0 8 23 76 51 153 29 76 58 154 65 173 121 336 319 860 338 899 14 28 26
58 26 68 0 10 7 28 15 40 9 12 27 53 41 90 14 37 30 72 35 77 5 6 9 18 9 27 0
10 19 50 42 91 57 100 178 361 178 383 0 6 -220 -107 -245 -125 -5 -4 -55 -31
-110 -60 -55 -29 -104 -56 -110 -60 -39 -27 -379 -200 -394 -200 -11 0 -9 109
5 225 21 188 21 1009 0 1215 -2 19 -7 75 -11 124 -4 50 -8 97 -10 105 -1 9 -6
48 -9 86 -4 39 -8 81 -11 95 -2 14 -6 48 -10 75 -3 28 -9 75 -15 105 -5 30
-12 73 -15 95 -3 22 -8 51 -10 65 -11 62 -44 237 -48 255 -3 11 -12 55 -21 97
-72 345 -230 886 -352 1200 -36 93 -108 275 -125 313 -323 752 -717 1400
-1233 2030 -215 262 -407 471 -581 630 -12 11 -35 32 -51 48 l-30 27 -1 -499
c-1 -474 0 -500 19 -542 10 -24 22 -46 26 -49 25 -17 287 -352 378 -480 121
-173 344 -520 344 -535 0 -3 11 -23 24 -44 65 -103 293 -542 364 -701 170
-380 299 -735 401 -1100 41 -143 109 -430 127 -530 2 -14 9 -47 14 -75 5 -27
12 -63 15 -80 2 -16 9 -55 15 -85 6 -30 13 -75 16 -100 3 -25 7 -56 10 -70 2
-14 6 -47 9 -75 3 -27 7 -60 9 -72 3 -12 8 -53 11 -90 4 -37 8 -78 10 -91 2
-13 7 -65 10 -115 4 -51 8 -110 10 -132 22 -241 22 -862 0 -1115 -2 -25 -6
-85 -9 -135 -7 -108 -18 -127 -102 -170 -95 -49 -218 -117 -232 -128 -7 -5
-15 -7 -19 -4 -6 7 -5 112 2 177 11 101 15 153 21 235 3 50 7 108 9 130 5 53
5 706 1 770 -2 28 -7 102 -10 165 -4 63 -8 126 -11 140 -2 14 -6 57 -10 95
-16 164 -25 240 -35 305 -5 30 -12 73 -15 95 -3 23 -7 52 -10 65 -3 13 -7 42
-10 65 -3 22 -8 47 -10 55 -2 8 -7 31 -10 50 -6 37 -73 355 -80 380 -2 8 -11
44 -20 80 -29 121 -97 355 -114 390 -29 63 -17 62 -614 60 -485 -1 -543 -2
-559 -17 -17 -15 -18 -72 -18 -1192 0 -1311 -4 -1230 72 -1352 63 -102 71
-116 178 -309 54 -96 135 -238 180 -315 45 -77 94 -160 108 -185 14 -25 36
-62 49 -82 12 -21 23 -40 23 -42 0 -3 14 -29 31 -58 18 -29 52 -93 77 -141
l44 -88 -28 -31 c-50 -53 -238 -207 -246 -202 -8 5 -95 150 -140 234 -14 25
-35 63 -48 85 -30 52 -104 185 -143 255 -16 30 -33 60 -37 65 -4 6 -17 26 -27
45 -22 39 -92 162 -108 188 -553 915 -925 1789 -1214 2852 -132 488 -289 891
-483 1245 -67 124 -195 334 -208 345 -4 3 -25 32 -47 65 -110 164 -270 354
-442 525 -354 352 -736 589 -1196 741 -68 23 -265 75 -310 82 -16 3 -70 12
-120 21 -137 23 -186 29 -345 41 -129 11 -565 5 -780 -9 -41 -3 -115 -8 -165
-11 -49 -4 -108 -8 -130 -10 -22 -2 -80 -6 -130 -10 -49 -4 -101 -8 -115 -10
-14 -2 -54 -7 -90 -10 -36 -3 -81 -8 -100 -9 -42 -4 -145 -16 -180 -21 -14 -2
-53 -7 -88 -10 -35 -4 -73 -8 -85 -11 -12 -2 -47 -6 -77 -9 -30 -3 -66 -7 -80
-10 -14 -2 -49 -7 -79 -10 -30 -4 -61 -8 -70 -10 -9 -2 -44 -6 -76 -10 -33 -4
-67 -9 -76 -10 -9 -2 -40 -6 -69 -10 -29 -4 -61 -8 -70 -10 -9 -2 -41 -6 -71
-10 -30 -3 -65 -8 -79 -10 -14 -3 -38 -7 -55 -9 -16 -2 -50 -7 -75 -11 -78
-11 -94 -14 -140 -20 -25 -3 -70 -10 -100 -15 -30 -5 -75 -12 -100 -15 -25 -3
-70 -10 -100 -15 -30 -5 -70 -12 -87 -15 -18 -3 -45 -7 -60 -10 -16 -2 -46 -7
-68 -9 -22 -3 -49 -7 -60 -10 -11 -2 -41 -6 -66 -10 -25 -4 -57 -8 -70 -10
-13 -3 -46 -7 -72 -11 -27 -4 -56 -8 -65 -10 -10 -1 -46 -6 -82 -10 -36 -3
-72 -8 -80 -10 -8 -2 -51 -7 -94 -10 -43 -4 -87 -8 -96 -10 -134 -26 -857 -26
-960 0 -8 2 -35 6 -60 9 -54 7 -153 28 -235 51 -33 9 -67 18 -75 20 -8 2 -62
22 -120 45 -114 45 -198 89 -358 187 -57 35 -105 63 -107 63 -1 0 -88 50 -191
112 -104 61 -227 134 -274 161 -47 27 -97 57 -112 66 -68 41 -423 244 -508
290 -52 29 -106 59 -120 67 -52 30 -408 207 -475 235 -38 17 -85 37 -103 45
-264 120 -704 231 -1028 260 -99 8 -368 10 -459 3z"/>
<path d="M8651 16208 c-19 -6 -21 -16 -22 -85 -2 -117 1 -136 21 -157 18 -18
40 -19 464 -19 405 -1 448 0 463 16 13 13 17 38 19 114 1 88 -1 99 -21 119
l-23 23 -440 -2 c-243 -1 -450 -5 -461 -9z"/>
<path d="M9780 16209 c-49 -10 -54 -24 -52 -134 2 -84 11 -113 35 -121 27 -9
869 -8 897 1 26 8 34 42 33 144 -1 63 -6 88 -18 100 -14 14 -63 16 -439 16
-233 0 -438 -3 -456 -6z"/>
</g>
</svg>
